<mxfile host="app.diagrams.net" agent="Mozilla/5.0 (X11; Linux x86_64) AppleWebKit/537.36 (KHTML, like Gecko) Chrome/134.0.0.0 Safari/537.36" version="26.0.16">
  <diagram name="Page-1" id="t1vXy1QBSRWjMCU63GLH">
    <mxGraphModel dx="1589" dy="996" grid="1" gridSize="10" guides="1" tooltips="1" connect="1" arrows="1" fold="1" page="1" pageScale="1" pageWidth="850" pageHeight="1100" math="0" shadow="0">
      <root>
        <mxCell id="0" />
        <mxCell id="1" parent="0" />
        <mxCell id="-SibCqfSAcz3j39xvlIU-62" value="&lt;font face=&quot;Times New Roman&quot;&gt;&lt;b&gt;Model Inference and Demo&lt;/b&gt;&lt;/font&gt;" style="rounded=0;whiteSpace=wrap;html=1;verticalAlign=top;dashed=1;fontSize=20;" vertex="1" parent="1">
          <mxGeometry x="60" y="790" width="850" height="530" as="geometry" />
        </mxCell>
        <mxCell id="-SibCqfSAcz3j39xvlIU-63" value="&lt;font face=&quot;Times New Roman&quot;&gt;&lt;b&gt;Model Training&lt;/b&gt;&lt;/font&gt;" style="rounded=0;whiteSpace=wrap;html=1;dashed=1;verticalAlign=top;fontSize=20;" vertex="1" parent="1">
          <mxGeometry x="40" y="30" width="850" height="720" as="geometry" />
        </mxCell>
        <mxCell id="-SibCqfSAcz3j39xvlIU-64" style="edgeStyle=orthogonalEdgeStyle;rounded=0;orthogonalLoop=1;jettySize=auto;html=1;exitX=1;exitY=0.5;exitDx=0;exitDy=0;entryX=0;entryY=0.5;entryDx=0;entryDy=0;fontSize=20;" edge="1" parent="1" source="-SibCqfSAcz3j39xvlIU-65" target="-SibCqfSAcz3j39xvlIU-114">
          <mxGeometry relative="1" as="geometry" />
        </mxCell>
        <mxCell id="-SibCqfSAcz3j39xvlIU-65" value="Text Corpus" style="rounded=1;whiteSpace=wrap;html=1;fontSize=20;fontFamily=Times New Roman;" vertex="1" parent="1">
          <mxGeometry x="150" y="70" width="120" height="60" as="geometry" />
        </mxCell>
        <mxCell id="-SibCqfSAcz3j39xvlIU-66" style="edgeStyle=orthogonalEdgeStyle;rounded=0;orthogonalLoop=1;jettySize=auto;html=1;entryX=0.5;entryY=0;entryDx=0;entryDy=0;fontSize=20;exitX=0.5;exitY=1;exitDx=0;exitDy=0;" edge="1" parent="1" source="-SibCqfSAcz3j39xvlIU-69" target="-SibCqfSAcz3j39xvlIU-74">
          <mxGeometry relative="1" as="geometry">
            <Array as="points">
              <mxPoint x="560" y="140" />
              <mxPoint x="210" y="140" />
            </Array>
            <mxPoint x="210" y="130" as="sourcePoint" />
          </mxGeometry>
        </mxCell>
        <mxCell id="-SibCqfSAcz3j39xvlIU-67" style="edgeStyle=orthogonalEdgeStyle;rounded=0;orthogonalLoop=1;jettySize=auto;html=1;exitX=0.5;exitY=1;exitDx=0;exitDy=0;entryX=0.5;entryY=0;entryDx=0;entryDy=0;fontSize=20;" edge="1" parent="1" source="-SibCqfSAcz3j39xvlIU-69" target="-SibCqfSAcz3j39xvlIU-76">
          <mxGeometry relative="1" as="geometry">
            <Array as="points">
              <mxPoint x="560" y="140" />
              <mxPoint x="680" y="140" />
            </Array>
          </mxGeometry>
        </mxCell>
        <mxCell id="-SibCqfSAcz3j39xvlIU-69" value="Data pre-processing" style="rounded=1;whiteSpace=wrap;html=1;fontSize=20;fontFamily=Times New Roman;" vertex="1" parent="1">
          <mxGeometry x="500" y="70" width="120" height="60" as="geometry" />
        </mxCell>
        <mxCell id="-SibCqfSAcz3j39xvlIU-70" style="edgeStyle=orthogonalEdgeStyle;rounded=0;orthogonalLoop=1;jettySize=auto;html=1;fontSize=20;" edge="1" parent="1" source="-SibCqfSAcz3j39xvlIU-71" target="-SibCqfSAcz3j39xvlIU-90">
          <mxGeometry relative="1" as="geometry" />
        </mxCell>
        <mxCell id="-SibCqfSAcz3j39xvlIU-71" value="&amp;nbsp;NLTK Word Tokenizer" style="rounded=1;whiteSpace=wrap;html=1;fontSize=20;fontFamily=Times New Roman;" vertex="1" parent="1">
          <mxGeometry x="360" y="210" width="180" height="60" as="geometry" />
        </mxCell>
        <mxCell id="-SibCqfSAcz3j39xvlIU-73" style="edgeStyle=orthogonalEdgeStyle;rounded=0;orthogonalLoop=1;jettySize=auto;html=1;exitX=1;exitY=0.5;exitDx=0;exitDy=0;fontSize=20;entryX=0.25;entryY=0;entryDx=0;entryDy=0;" edge="1" parent="1" source="-SibCqfSAcz3j39xvlIU-74" target="-SibCqfSAcz3j39xvlIU-71">
          <mxGeometry relative="1" as="geometry">
            <mxPoint x="360" y="240" as="targetPoint" />
          </mxGeometry>
        </mxCell>
        <mxCell id="-SibCqfSAcz3j39xvlIU-74" value="Train Data(80%)" style="rounded=1;whiteSpace=wrap;html=1;fontSize=20;fontFamily=Times New Roman;" vertex="1" parent="1">
          <mxGeometry x="150" y="150" width="120" height="60" as="geometry" />
        </mxCell>
        <mxCell id="-SibCqfSAcz3j39xvlIU-75" style="edgeStyle=orthogonalEdgeStyle;rounded=0;orthogonalLoop=1;jettySize=auto;html=1;exitX=0;exitY=0.5;exitDx=0;exitDy=0;entryX=0.75;entryY=0;entryDx=0;entryDy=0;fontSize=20;" edge="1" parent="1" source="-SibCqfSAcz3j39xvlIU-76" target="-SibCqfSAcz3j39xvlIU-71">
          <mxGeometry relative="1" as="geometry" />
        </mxCell>
        <mxCell id="-SibCqfSAcz3j39xvlIU-76" value="Test Data(20%)" style="rounded=1;whiteSpace=wrap;html=1;fontSize=20;fontFamily=Times New Roman;" vertex="1" parent="1">
          <mxGeometry x="620" y="150" width="120" height="60" as="geometry" />
        </mxCell>
        <mxCell id="-SibCqfSAcz3j39xvlIU-78" value="Model Training" style="rounded=0;whiteSpace=wrap;html=1;dashed=1;fontSize=20;verticalAlign=top;" vertex="1" parent="1">
          <mxGeometry x="70" y="290" width="300" height="440" as="geometry" />
        </mxCell>
        <mxCell id="-SibCqfSAcz3j39xvlIU-82" value="DNN with Word2Vec Embeddings" style="rounded=1;whiteSpace=wrap;html=1;fontSize=20;fontFamily=Times New Roman;" vertex="1" parent="1">
          <mxGeometry x="120" y="330" width="190" height="70" as="geometry" />
        </mxCell>
        <mxCell id="-SibCqfSAcz3j39xvlIU-83" style="edgeStyle=orthogonalEdgeStyle;rounded=0;orthogonalLoop=1;jettySize=auto;html=1;exitX=0;exitY=0.75;exitDx=0;exitDy=0;entryX=0.381;entryY=-0.008;entryDx=0;entryDy=0;entryPerimeter=0;fontSize=20;" edge="1" parent="1" source="-SibCqfSAcz3j39xvlIU-71">
          <mxGeometry relative="1" as="geometry">
            <mxPoint x="270" y="240" as="sourcePoint" />
            <mxPoint x="190.49" y="286.72" as="targetPoint" />
          </mxGeometry>
        </mxCell>
        <mxCell id="-SibCqfSAcz3j39xvlIU-85" value="DNN with Fasttext Embeddings" style="rounded=1;whiteSpace=wrap;html=1;fontSize=20;fontFamily=Times New Roman;" vertex="1" parent="1">
          <mxGeometry x="120" y="420" width="190" height="80" as="geometry" />
        </mxCell>
        <mxCell id="-SibCqfSAcz3j39xvlIU-86" value="SVM with Word2Vec Embeddings" style="rounded=1;whiteSpace=wrap;html=1;fontSize=20;fontFamily=Times New Roman;" vertex="1" parent="1">
          <mxGeometry x="120" y="515" width="190" height="90" as="geometry" />
        </mxCell>
        <mxCell id="-SibCqfSAcz3j39xvlIU-89" style="edgeStyle=orthogonalEdgeStyle;rounded=0;orthogonalLoop=1;jettySize=auto;html=1;entryX=0.994;entryY=0.537;entryDx=0;entryDy=0;fontSize=20;exitX=-0.002;exitY=0.694;exitDx=0;exitDy=0;exitPerimeter=0;entryPerimeter=0;" edge="1" parent="1" source="-SibCqfSAcz3j39xvlIU-90" target="-SibCqfSAcz3j39xvlIU-78">
          <mxGeometry relative="1" as="geometry" />
        </mxCell>
        <mxCell id="-SibCqfSAcz3j39xvlIU-90" value="&lt;font face=&quot;Times New Roman&quot;&gt;Evaluate&lt;/font&gt;" style="rounded=0;whiteSpace=wrap;html=1;verticalAlign=top;fontSize=20;" vertex="1" parent="1">
          <mxGeometry x="640" y="345" width="210" height="260" as="geometry" />
        </mxCell>
        <mxCell id="-SibCqfSAcz3j39xvlIU-91" value="Accuracy" style="rounded=1;whiteSpace=wrap;html=1;fontSize=20;fontFamily=Times New Roman;" vertex="1" parent="1">
          <mxGeometry x="675" y="380" width="120" height="40" as="geometry" />
        </mxCell>
        <mxCell id="-SibCqfSAcz3j39xvlIU-92" value="Precision" style="rounded=1;whiteSpace=wrap;html=1;fontSize=20;fontFamily=Times New Roman;" vertex="1" parent="1">
          <mxGeometry x="675" y="430" width="120" height="40" as="geometry" />
        </mxCell>
        <mxCell id="-SibCqfSAcz3j39xvlIU-93" value="Recall" style="rounded=1;whiteSpace=wrap;html=1;fontSize=20;fontFamily=Times New Roman;" vertex="1" parent="1">
          <mxGeometry x="675" y="480" width="120" height="40" as="geometry" />
        </mxCell>
        <mxCell id="-SibCqfSAcz3j39xvlIU-94" value="F1-score" style="rounded=1;whiteSpace=wrap;html=1;fontSize=20;fontFamily=Times New Roman;" vertex="1" parent="1">
          <mxGeometry x="675" y="540" width="120" height="40" as="geometry" />
        </mxCell>
        <mxCell id="-SibCqfSAcz3j39xvlIU-95" value="" style="endArrow=classic;html=1;rounded=0;exitX=1;exitY=0.25;exitDx=0;exitDy=0;entryX=0.001;entryY=0.206;entryDx=0;entryDy=0;entryPerimeter=0;fontSize=20;" edge="1" parent="1" source="-SibCqfSAcz3j39xvlIU-78" target="-SibCqfSAcz3j39xvlIU-90">
          <mxGeometry width="50" height="50" relative="1" as="geometry">
            <mxPoint x="340" y="410" as="sourcePoint" />
            <mxPoint x="390" y="360" as="targetPoint" />
          </mxGeometry>
        </mxCell>
        <mxCell id="-SibCqfSAcz3j39xvlIU-96" style="edgeStyle=orthogonalEdgeStyle;rounded=0;orthogonalLoop=1;jettySize=auto;html=1;exitX=1;exitY=0.5;exitDx=0;exitDy=0;fontSize=20;entryX=0.5;entryY=0;entryDx=0;entryDy=0;" edge="1" parent="1" source="-SibCqfSAcz3j39xvlIU-97" target="-SibCqfSAcz3j39xvlIU-99">
          <mxGeometry relative="1" as="geometry" />
        </mxCell>
        <mxCell id="-SibCqfSAcz3j39xvlIU-97" value="Model saved" style="rounded=1;whiteSpace=wrap;html=1;fontSize=20;fontFamily=Times New Roman;" vertex="1" parent="1">
          <mxGeometry x="690" y="650" width="170" height="60" as="geometry" />
        </mxCell>
        <mxCell id="-SibCqfSAcz3j39xvlIU-98" style="edgeStyle=orthogonalEdgeStyle;rounded=0;orthogonalLoop=1;jettySize=auto;html=1;exitX=1;exitY=0.75;exitDx=0;exitDy=0;entryX=0.25;entryY=0;entryDx=0;entryDy=0;" edge="1" parent="1" source="-SibCqfSAcz3j39xvlIU-99" target="-SibCqfSAcz3j39xvlIU-101">
          <mxGeometry relative="1" as="geometry" />
        </mxCell>
        <mxCell id="-SibCqfSAcz3j39xvlIU-99" value="Python package providing API for model&amp;nbsp;&lt;div&gt;Inference&lt;/div&gt;" style="rounded=1;whiteSpace=wrap;html=1;fontSize=20;fontFamily=Times New Roman;" vertex="1" parent="1">
          <mxGeometry x="180" y="820" width="160" height="210" as="geometry" />
        </mxCell>
        <mxCell id="-SibCqfSAcz3j39xvlIU-100" style="edgeStyle=orthogonalEdgeStyle;rounded=0;orthogonalLoop=1;jettySize=auto;html=1;exitX=0.75;exitY=0;exitDx=0;exitDy=0;entryX=1;entryY=0.25;entryDx=0;entryDy=0;" edge="1" parent="1" source="-SibCqfSAcz3j39xvlIU-101" target="-SibCqfSAcz3j39xvlIU-99">
          <mxGeometry relative="1" as="geometry" />
        </mxCell>
        <mxCell id="-SibCqfSAcz3j39xvlIU-101" value="Flask Back End&amp;nbsp;&lt;div&gt;making&lt;/div&gt;&lt;div&gt;&amp;nbsp;API calls to the&lt;/div&gt;&lt;div&gt;&amp;nbsp;model&lt;/div&gt;" style="rounded=1;whiteSpace=wrap;html=1;fontSize=20;fontFamily=Times New Roman;" vertex="1" parent="1">
          <mxGeometry x="540" y="1050" width="210" height="250" as="geometry" />
        </mxCell>
        <mxCell id="-SibCqfSAcz3j39xvlIU-102" value="Nextjs Front End&amp;nbsp;&lt;div&gt;for users to&amp;nbsp;&lt;div&gt;infer&lt;/div&gt;&lt;div&gt;&amp;nbsp;the model through a web application&lt;/div&gt;&lt;/div&gt;" style="rounded=1;whiteSpace=wrap;html=1;fontSize=20;fontFamily=Times New Roman;" vertex="1" parent="1">
          <mxGeometry x="180" y="1070" width="270" height="230" as="geometry" />
        </mxCell>
        <mxCell id="-SibCqfSAcz3j39xvlIU-103" value="" style="endArrow=classic;html=1;rounded=0;entryX=0.006;entryY=0.368;entryDx=0;entryDy=0;entryPerimeter=0;exitX=1.006;exitY=0.313;exitDx=0;exitDy=0;exitPerimeter=0;fontSize=20;" edge="1" parent="1" source="-SibCqfSAcz3j39xvlIU-102" target="-SibCqfSAcz3j39xvlIU-101">
          <mxGeometry width="50" height="50" relative="1" as="geometry">
            <mxPoint x="290" y="1330" as="sourcePoint" />
            <mxPoint x="340" y="1280" as="targetPoint" />
          </mxGeometry>
        </mxCell>
        <mxCell id="-SibCqfSAcz3j39xvlIU-104" value="" style="endArrow=classic;html=1;rounded=0;entryX=1;entryY=0.75;entryDx=0;entryDy=0;fontSize=20;" edge="1" parent="1" target="-SibCqfSAcz3j39xvlIU-102">
          <mxGeometry width="50" height="50" relative="1" as="geometry">
            <mxPoint x="536" y="1243" as="sourcePoint" />
            <mxPoint x="340" y="1280" as="targetPoint" />
          </mxGeometry>
        </mxCell>
        <mxCell id="-SibCqfSAcz3j39xvlIU-106" value="" style="endArrow=classic;html=1;rounded=0;entryX=0;entryY=0.5;entryDx=0;entryDy=0;" edge="1" parent="1" target="-SibCqfSAcz3j39xvlIU-97">
          <mxGeometry width="50" height="50" relative="1" as="geometry">
            <mxPoint x="490" y="680" as="sourcePoint" />
            <mxPoint x="410" y="670" as="targetPoint" />
          </mxGeometry>
        </mxCell>
        <mxCell id="-SibCqfSAcz3j39xvlIU-110" value="SVM with Fasttext Embeddings" style="rounded=1;whiteSpace=wrap;html=1;fontSize=20;fontFamily=Times New Roman;" vertex="1" parent="1">
          <mxGeometry x="120" y="620" width="190" height="90" as="geometry" />
        </mxCell>
        <mxCell id="-SibCqfSAcz3j39xvlIU-111" value="5-Fold Cross-Validation" style="rounded=1;whiteSpace=wrap;html=1;fontSize=20;fontFamily=Times New Roman;" vertex="1" parent="1">
          <mxGeometry x="425" y="650" width="170" height="60" as="geometry" />
        </mxCell>
        <mxCell id="-SibCqfSAcz3j39xvlIU-112" value="" style="endArrow=classic;html=1;rounded=0;entryX=0;entryY=0.5;entryDx=0;entryDy=0;" edge="1" parent="1" target="-SibCqfSAcz3j39xvlIU-111">
          <mxGeometry width="50" height="50" relative="1" as="geometry">
            <mxPoint x="370" y="680" as="sourcePoint" />
            <mxPoint x="100" y="460" as="targetPoint" />
          </mxGeometry>
        </mxCell>
        <mxCell id="-SibCqfSAcz3j39xvlIU-115" style="edgeStyle=orthogonalEdgeStyle;rounded=0;orthogonalLoop=1;jettySize=auto;html=1;exitX=1;exitY=0.5;exitDx=0;exitDy=0;entryX=0;entryY=0.5;entryDx=0;entryDy=0;" edge="1" parent="1" source="-SibCqfSAcz3j39xvlIU-114" target="-SibCqfSAcz3j39xvlIU-69">
          <mxGeometry relative="1" as="geometry" />
        </mxCell>
        <mxCell id="-SibCqfSAcz3j39xvlIU-114" value="Data Balancing" style="rounded=1;whiteSpace=wrap;html=1;fontSize=20;fontFamily=Times New Roman;" vertex="1" parent="1">
          <mxGeometry x="320" y="70" width="120" height="60" as="geometry" />
        </mxCell>
      </root>
    </mxGraphModel>
  </diagram>
</mxfile>
